<?xml version="1.0" encoding="UTF-8" standalone="no"?>
<!DOCTYPE svg PUBLIC "-//W3C//DTD SVG 1.1//EN" "http://www.w3.org/Graphics/SVG/1.1/DTD/svg11.dtd">
<svg width="100%" height="100%" viewBox="0 0 160 239" version="1.1" xmlns="http://www.w3.org/2000/svg" xmlns:xlink="http://www.w3.org/1999/xlink" xml:space="preserve" xmlns:serif="http://www.serif.com/" style="fill-rule:evenodd;clip-rule:evenodd;stroke-linejoin:round;stroke-miterlimit:2;">
    <g transform="matrix(1,0,0,1,-432.267,-432)">
        <path d="M517.946,596.011L537.956,670.689L549.27,651.093L568.866,662.407L549.613,590.556C548.1,590.61 546.574,590.309 545.164,589.651L537.414,586.029L533.523,593.647C532.126,596.383 529.514,598.294 526.484,598.8C523.454,599.305 520.364,598.345 518.154,596.211L517.946,596.011ZM474.387,590.556L455.134,662.407L474.73,651.093L486.044,670.689L506.054,596.011L505.846,596.211C503.636,598.345 500.546,599.305 497.516,598.8C494.486,598.294 491.874,596.383 490.477,593.647L486.586,586.029L478.836,589.651C477.426,590.309 475.9,590.61 474.387,590.556Z" style="fill:rgb(0,126,255);"/>
        <g transform="matrix(0.5,0,0,0.5,256,256)">
            <path d="M509.274,353.373C509.914,352.509 510.925,352 512,352C513.075,352 514.086,352.509 514.726,353.373L532.156,376.9C532.679,377.607 533.456,378.082 534.323,378.227C535.19,378.371 536.079,378.174 536.803,377.676L560.928,361.083C561.814,360.474 562.935,360.32 563.952,360.669C564.968,361.018 565.759,361.828 566.084,362.853L574.93,390.765C575.196,391.603 575.776,392.305 576.549,392.723C577.322,393.142 578.228,393.243 579.074,393.008L607.28,385.147C608.315,384.858 609.426,385.077 610.274,385.738C611.122,386.398 611.607,387.421 611.582,388.495L610.886,417.767C610.865,418.646 611.186,419.498 611.781,420.145C612.376,420.792 613.199,421.182 614.077,421.234L643.307,422.957C644.379,423.021 645.359,423.589 645.947,424.488C646.534,425.388 646.661,426.513 646.288,427.521L636.125,454.981C635.82,455.805 635.847,456.716 636.2,457.521C636.553,458.326 637.205,458.962 638.018,459.296L665.104,470.417C666.098,470.825 666.84,471.681 667.104,472.722C667.368,473.764 667.122,474.869 666.442,475.701L647.914,498.374C647.357,499.054 647.087,499.924 647.16,500.8C647.232,501.676 647.642,502.49 648.303,503.07L670.31,522.383C671.118,523.092 671.542,524.142 671.454,525.213C671.365,526.284 670.774,527.249 669.86,527.816L644.974,543.243C644.227,543.706 643.689,544.441 643.473,545.293C643.257,546.146 643.381,547.048 643.817,547.811L658.361,573.224C658.895,574.157 658.955,575.287 658.524,576.271C658.092,577.255 657.22,577.977 656.172,578.216L627.624,584.727C626.767,584.922 626.02,585.443 625.539,586.179C625.058,586.915 624.882,587.808 625.047,588.672L630.552,617.43C630.754,618.486 630.444,619.574 629.716,620.365C628.988,621.156 627.928,621.555 626.86,621.441L597.745,618.33C596.871,618.236 595.995,618.486 595.301,619.026C594.608,619.565 594.151,620.353 594.027,621.224L589.895,650.211C589.744,651.275 589.097,652.204 588.152,652.716C587.206,653.227 586.075,653.261 585.101,652.806L558.574,640.41C557.778,640.038 556.868,639.989 556.037,640.274C555.205,640.56 554.517,641.157 554.117,641.94L540.798,668.015C540.309,668.972 539.395,669.641 538.335,669.818C537.275,669.995 536.194,669.659 535.421,668.912L514.356,648.575C513.724,647.964 512.879,647.623 512,647.623C511.121,647.623 510.276,647.964 509.644,648.575L488.579,668.912C487.806,669.659 486.725,669.995 485.665,669.818C484.605,669.641 483.691,668.972 483.202,668.015L469.883,641.94C469.483,641.157 468.795,640.56 467.963,640.274C467.132,639.989 466.222,640.038 465.426,640.41L438.899,652.806C437.925,653.261 436.794,653.227 435.848,652.716C434.903,652.204 434.256,651.275 434.105,650.211L429.973,621.224C429.849,620.353 429.392,619.565 428.699,619.026C428.005,618.486 427.129,618.236 426.255,618.33L397.14,621.441C396.072,621.555 395.012,621.156 394.284,620.365C393.556,619.574 393.246,618.486 393.448,617.43L398.953,588.672C399.118,587.808 398.942,586.915 398.461,586.179C397.98,585.443 397.233,584.922 396.376,584.727L367.828,578.216C366.78,577.977 365.908,577.255 365.476,576.271C365.045,575.287 365.105,574.157 365.639,573.224L380.183,547.811C380.619,547.048 380.743,546.146 380.527,545.293C380.311,544.441 379.773,543.706 379.026,543.243L354.14,527.816C353.226,527.249 352.635,526.284 352.546,525.213C352.458,524.142 352.882,523.092 353.69,522.383L375.697,503.07C376.358,502.49 376.768,501.676 376.84,500.8C376.913,499.924 376.643,499.054 376.086,498.374L357.558,475.701C356.878,474.869 356.632,473.764 356.896,472.722C357.16,471.681 357.902,470.825 358.896,470.417L385.982,459.296C386.795,458.962 387.447,458.326 387.8,457.521C388.153,456.716 388.18,455.805 387.875,454.981L377.712,427.521C377.339,426.513 377.466,425.388 378.053,424.488C378.641,423.589 379.621,423.021 380.693,422.957L409.923,421.234C410.801,421.182 411.624,420.792 412.219,420.145C412.814,419.498 413.135,418.646 413.114,417.767L412.418,388.495C412.393,387.421 412.878,386.398 413.726,385.738C414.574,385.077 415.685,384.858 416.72,385.147L444.926,393.008C445.772,393.243 446.678,393.142 447.451,392.723C448.224,392.305 448.804,391.603 449.07,390.765L457.916,362.853C458.241,361.828 459.032,361.018 460.048,360.669C461.065,360.32 462.186,360.474 463.072,361.083L487.197,377.676C487.921,378.174 488.81,378.371 489.677,378.227C490.544,378.082 491.321,377.607 491.844,376.9L509.274,353.373Z" style="fill:rgb(0,126,255);"/>
        </g>
        <path d="M512,456C542.907,456 568,481.093 568,512C568,542.907 542.907,568 512,568C481.093,568 456,542.907 456,512C456,481.093 481.093,456 512,456ZM512,464C538.492,464 560,485.508 560,512C560,538.492 538.492,560 512,560C485.508,560 464,538.492 464,512C464,485.508 485.508,464 512,464Z" style="fill:white;"/>
    </g>
</svg>
